<svg xmlns="http://www.w3.org/2000/svg" xmlns:xlink="http://www.w3.org/1999/xlink" width="1080" zoomAndPan="magnify" viewBox="0 0 810 809.999993" height="1080" preserveAspectRatio="xMidYMid meet" version="1.0"><defs><g/><clipPath id="ecfc40abcc"><path d="M 405 0 C 181.324219 0 0 181.324219 0 405 C 0 628.675781 181.324219 810 405 810 C 628.675781 810 810 628.675781 810 405 C 810 181.324219 628.675781 0 405 0 Z M 405 0 " clip-rule="nonzero"/></clipPath></defs><g clip-path="url(#ecfc40abcc)"><rect x="-81" width="972" fill="#ff5757" y="-80.999999" height="971.999992" fill-opacity="1"/></g><g fill="#ffffff" fill-opacity="1"><g transform="translate(102.082718, 529.824428)"><g><path d="M 179.90625 -309.859375 L 304.96875 0 L 229.109375 0 L 206.1875 -61.96875 L 88.265625 -61.96875 L 65.34375 0 L -10.515625 0 L 114.546875 -309.859375 Z M 182.15625 -123.9375 L 147.609375 -214.078125 L 146.84375 -214.078125 L 112.296875 -123.9375 Z M 182.15625 -123.9375 "/></g></g></g><g fill="#ffffff" fill-opacity="1"><g transform="translate(396.540855, 529.824428)"><g><path d="M 302.71875 -173.515625 L 302.71875 -106.28125 C 294.707031 -69.476562 277.179688 -41.625 250.140625 -22.71875 C 223.097656 -3.8125 192.925781 5.640625 159.625 5.640625 C 117.8125 5.640625 82.191406 -10.007812 52.765625 -41.3125 C 23.347656 -72.613281 8.640625 -110.421875 8.640625 -154.734375 C 8.640625 -199.804688 23.035156 -237.863281 51.828125 -268.90625 C 80.617188 -299.957031 116.550781 -315.484375 159.625 -315.484375 C 209.945312 -315.484375 249.753906 -297.832031 279.046875 -262.53125 L 232.859375 -211.828125 C 216.328125 -238.367188 193.289062 -251.640625 163.75 -251.640625 C 141.96875 -251.640625 123.375 -242.1875 107.96875 -223.28125 C 92.570312 -204.375 84.875 -181.523438 84.875 -154.734375 C 84.875 -128.441406 92.570312 -105.96875 107.96875 -87.3125 C 123.375 -68.664062 141.96875 -59.34375 163.75 -59.34375 C 181.78125 -59.34375 197.492188 -64.785156 210.890625 -75.671875 C 224.285156 -86.566406 230.984375 -101.03125 230.984375 -119.0625 L 159.625 -119.0625 L 159.625 -173.515625 Z M 302.71875 -173.515625 "/></g></g></g></svg>